<svg xmlns="http://www.w3.org/2000/svg" version="1.1" xmlns:xlink="http://www.w3.org/1999/xlink" xmlns:svgjs="http://svgjs.dev/svgjs" width="1000" height="469" viewBox="0 0 1000 469"><g transform="matrix(1,0,0,1,-0.6060606060606801,-0.5178173844531955)"><svg viewBox="0 0 396 186" data-background-color="#f2f2f2" preserveAspectRatio="xMidYMid meet" height="469" width="1000" xmlns="http://www.w3.org/2000/svg" xmlns:xlink="http://www.w3.org/1999/xlink"><g id="tight-bounds" transform="matrix(1,0,0,1,0.24000000000003752,0.20536041259764204)"><svg viewBox="0 0 395.5199999999999 185.58927765461388" height="185.58927765461388" width="395.5199999999999"><g><svg viewBox="0 0 397.4975999999999 186.51722404288694" height="185.58927765461388" width="395.5199999999999"><g></g><g></g><g transform="matrix(1,0,0,1,0.9887999999999693,127.35334022545958)"><svg viewBox="0 0 395.52 59.1638838174274" height="59.1638838174274" width="395.52"><g id="textblocktransform"><svg viewBox="0 0 395.52 59.1638838174274" height="59.1638838174274" width="395.52" id="textblock"><g><svg viewBox="0 0 395.52 59.1638838174274" height="59.1638838174274" width="395.52"><g transform="matrix(1,0,0,1,0,0)"><svg width="395.52" viewBox="3.450000047683716 -35.29999923706055 240.97999572753906 36.04999923706055" height="59.1638838174274" data-palette-color="url(#b13cfc7c-2d42-4be4-be35-8bf7a01b90b5)"></svg></g></svg></g></svg></g></svg></g><g transform="matrix(1,0,0,1,166.0734148324299,0)"><svg viewBox="0 0 65.35077033514013 81.76448743568467" height="81.76448743568467" width="65.35077033514013"><g><svg xmlns="http://www.w3.org/2000/svg" xmlns:xlink="http://www.w3.org/1999/xlink" version="1.1" x="0" y="0" viewBox="100.00000762939453 63.13500213623047 300 375.3489990234375" style="enable-background:new 0 0 500 500;" xml:space="preserve" height="81.76448743568467" width="65.35077033514013" class="icon-icon-0" data-fill-palette-color="accent" id="icon-0"></svg></g></svg></g><g></g></svg></g><defs></defs><mask id="7481a6cf-128d-4100-904e-75732dd7e569"><g id="SvgjsG2243"><svg viewBox="0 0 395.5199999999999 185.58927765461388" height="185.58927765461388" width="395.5199999999999"><g><svg viewBox="0 0 397.4975999999999 186.51722404288694" height="185.58927765461388" width="395.5199999999999"><g><rect width="397.4975999999999" height="5.3354600997837025" x="0" y="95.73166047176767" fill="white" opacity="1" stroke-width="0" stroke="transparent" fill-opacity="1" class="rect-o-0" rx="1%" id="SvgjsRect2242" data-palette-color="url(#b13cfc7c-2d42-4be4-be35-8bf7a01b90b5)"></rect></g><g><rect width="397.4975999999999" height="5.3354600997837025" x="0" y="108.05070708959288" fill="white" opacity="1" stroke-width="0" stroke="transparent" fill-opacity="1" class="rect-o-1" rx="1%" id="SvgjsRect2241" data-palette-color="url(#b13cfc7c-2d42-4be4-be35-8bf7a01b90b5)"></rect></g><g transform="matrix(1,0,0,1,0.9887999999999693,127.35334022545958)"><svg viewBox="0 0 395.52 59.1638838174274" height="59.1638838174274" width="395.52"><g id="SvgjsG2240"><svg viewBox="0 0 395.52 59.1638838174274" height="59.1638838174274" width="395.52" id="SvgjsSvg2239"><g><svg viewBox="0 0 395.52 59.1638838174274" height="59.1638838174274" width="395.52"><g transform="matrix(1,0,0,1,0,0)"><svg width="395.52" viewBox="3.450000047683716 -35.29999923706055 240.97999572753906 36.04999923706055" height="59.1638838174274" data-palette-color="url(#b13cfc7c-2d42-4be4-be35-8bf7a01b90b5)"><path d="M11.5-34.55Q16.2-34.55 19.68-33.2 23.15-31.85 25.33-28.08 27.5-24.3 27.5-17.45L27.5-17.45Q27.5-7.75 23.23-3.88 18.95 0 12.25 0L12.25 0 3.45 0 3.45-34.55 11.5-34.55ZM12.55-29.7L9.95-29.7 9.95-4.85 12.7-4.85Q16.55-4.85 18.68-7.55 20.8-10.25 20.8-17.45L20.8-17.45Q20.8-22.45 19.73-25.15 18.65-27.85 16.88-28.78 15.1-29.7 12.55-29.7L12.55-29.7ZM49.75 0L42.95-13.9 39.4-13.9 39.4 0 32.9 0 32.9-34.55 42-34.55Q55.05-34.55 55.05-24.4L55.05-24.4Q55.05-21.1 53.5-18.73 51.95-16.35 48.85-15.1L48.85-15.1 56.9 0 49.75 0ZM39.4-18.55L42.35-18.55Q45.45-18.55 46.9-19.95 48.35-21.35 48.35-24.4L48.35-24.4Q48.35-27.2 46.82-28.5 45.3-29.8 41.95-29.8L41.95-29.8 39.4-29.8 39.4-18.55ZM60.65-34.55L79.1-34.55 78.4-29.75 67.15-29.75 67.15-19.95 77-19.95 77-15.2 67.15-15.2 67.15-4.85 79.2-4.85 79.2 0 60.65 0 60.65-34.55ZM93.74-35.3Q97.04-35.3 99.52-34.25 101.99-33.2 104.09-31.05L104.09-31.05 100.99-27.5Q99.34-28.95 97.69-29.65 96.04-30.35 94.14-30.35L94.14-30.35Q92.04-30.35 90.77-29.25 89.49-28.15 89.49-26.2L89.49-26.2Q89.49-24.9 90.02-24 90.54-23.1 91.89-22.33 93.24-21.55 95.79-20.65L95.79-20.65Q100.44-18.95 102.72-16.6 104.99-14.25 104.99-9.85L104.99-9.85Q104.99-6.8 103.54-4.4 102.09-2 99.37-0.63 96.64 0.75 92.99 0.75L92.99 0.75Q86.14 0.75 81.54-3.95L81.54-3.95 84.84-7.6Q86.74-5.95 88.62-5.1 90.49-4.25 92.74-4.25L92.74-4.25Q95.29-4.25 96.77-5.65 98.24-7.05 98.24-9.5L98.24-9.5Q98.24-11.7 96.99-12.98 95.74-14.25 92.24-15.45L92.24-15.45Q87.24-17.2 85.04-19.6 82.84-22 82.84-25.75L82.84-25.75Q82.84-28.5 84.24-30.68 85.64-32.85 88.14-34.08 90.64-35.3 93.74-35.3L93.74-35.3ZM119.09-35.3Q122.39-35.3 124.87-34.25 127.34-33.2 129.44-31.05L129.44-31.05 126.34-27.5Q124.69-28.95 123.04-29.65 121.39-30.35 119.49-30.35L119.49-30.35Q117.39-30.35 116.12-29.25 114.84-28.15 114.84-26.2L114.84-26.2Q114.84-24.9 115.37-24 115.89-23.1 117.24-22.33 118.59-21.55 121.14-20.65L121.14-20.65Q125.79-18.95 128.06-16.6 130.34-14.25 130.34-9.85L130.34-9.85Q130.34-6.8 128.89-4.4 127.44-2 124.72-0.63 121.99 0.75 118.34 0.75L118.34 0.75Q111.49 0.75 106.89-3.95L106.89-3.95 110.19-7.6Q112.09-5.95 113.97-5.1 115.84-4.25 118.09-4.25L118.09-4.25Q120.64-4.25 122.12-5.65 123.59-7.05 123.59-9.5L123.59-9.5Q123.59-11.7 122.34-12.98 121.09-14.25 117.59-15.45L117.59-15.45Q112.59-17.2 110.39-19.6 108.19-22 108.19-25.75L108.19-25.75Q108.19-28.5 109.59-30.68 110.99-32.85 113.49-34.08 115.99-35.3 119.09-35.3L119.09-35.3ZM144.44-35.3Q147.74-35.3 150.21-34.25 152.69-33.2 154.79-31.05L154.79-31.05 151.69-27.5Q150.04-28.95 148.39-29.65 146.74-30.35 144.84-30.35L144.84-30.35Q142.74-30.35 141.46-29.25 140.19-28.15 140.19-26.2L140.19-26.2Q140.19-24.9 140.71-24 141.24-23.1 142.59-22.33 143.94-21.55 146.49-20.65L146.49-20.65Q151.14-18.95 153.41-16.6 155.69-14.25 155.69-9.85L155.69-9.85Q155.69-6.8 154.24-4.4 152.79-2 150.06-0.63 147.34 0.75 143.69 0.75L143.69 0.75Q136.84 0.75 132.24-3.95L132.24-3.95 135.54-7.6Q137.44-5.95 139.31-5.1 141.19-4.25 143.44-4.25L143.44-4.25Q145.99-4.25 147.46-5.65 148.94-7.05 148.94-9.5L148.94-9.5Q148.94-11.7 147.69-12.98 146.44-14.25 142.94-15.45L142.94-15.45Q137.94-17.2 135.74-19.6 133.54-22 133.54-25.75L133.54-25.75Q133.54-28.5 134.94-30.68 136.34-32.85 138.84-34.08 141.34-35.3 144.44-35.3L144.44-35.3ZM183.88 0L177.38 0 177.38-15.5 166.98-15.5 166.98 0 160.48 0 160.48-34.55 166.98-34.55 166.98-20.65 177.38-20.65 177.38-34.55 183.88-34.55 183.88 0ZM203.03-35.3Q209.53-35.3 213.18-30.73 216.83-26.15 216.83-17.3L216.83-17.3Q216.83-8.55 213.18-3.9 209.53 0.75 203.03 0.75L203.03 0.75Q196.58 0.75 192.93-3.85 189.28-8.45 189.28-17.25L189.28-17.25Q189.28-25.95 192.93-30.63 196.58-35.3 203.03-35.3L203.03-35.3ZM203.03-30.35Q199.58-30.35 197.83-27.3 196.08-24.25 196.08-17.25L196.08-17.25Q196.08-10.3 197.86-7.25 199.63-4.2 203.03-4.2L203.03-4.2Q206.58-4.2 208.31-7.23 210.03-10.25 210.03-17.3L210.03-17.3Q210.03-24.25 208.31-27.3 206.58-30.35 203.03-30.35L203.03-30.35ZM231.13-34.55Q237.58-34.55 241.01-31.78 244.43-29 244.43-23.55L244.43-23.55Q244.43-17.85 241.01-14.98 237.58-12.1 231.58-12.1L231.58-12.1 228.68-12.1 228.68 0 222.18 0 222.18-34.55 231.13-34.55ZM231.18-16.95Q234.53-16.95 236.13-18.43 237.73-19.9 237.73-23.55L237.73-23.55Q237.73-26.8 236.13-28.3 234.53-29.8 231.18-29.8L231.18-29.8 228.68-29.8 228.68-16.95 231.18-16.95Z" opacity="1" transform="matrix(1,0,0,1,0,0)" fill="white" class="wordmark-text-0" id="SvgjsPath2238"></path></svg></g></svg></g></svg></g></svg></g><g transform="matrix(1,0,0,1,166.0734148324299,0)"><svg viewBox="0 0 65.35077033514013 81.76448743568467" height="81.76448743568467" width="65.35077033514013"><g><svg xmlns="http://www.w3.org/2000/svg" xmlns:xlink="http://www.w3.org/1999/xlink" version="1.1" x="0" y="0" viewBox="100.00000762939453 63.13500213623047 300 375.3489990234375" style="enable-background:new 0 0 500 500;" xml:space="preserve" height="81.76448743568467" width="65.35077033514013" class="icon-icon-0" data-fill-palette-color="accent" id="SvgjsSvg2237"></svg></g></svg></g><g></g></svg></g><defs><mask></mask></defs></svg></g></mask><linearGradient x1="0" x2="1" y1="0.5" y2="0.5" id="b13cfc7c-2d42-4be4-be35-8bf7a01b90b5"><stop stop-color="#f00b51" offset="0"></stop><stop stop-color="#730062" offset="1"></stop></linearGradient><rect width="395.5199890136719" height="185.5892791748047" fill="url(#b13cfc7c-2d42-4be4-be35-8bf7a01b90b5)" mask="url(#7481a6cf-128d-4100-904e-75732dd7e569)" data-fill-palette-color="primary"></rect><mask id="cc6e8024-2b4b-4efc-9ac9-7f9bfcd1f075"><g id="SvgjsG2254"><svg viewBox="0 0 395.5199999999999 185.58927765461388" height="185.58927765461388" width="395.5199999999999"><g><svg viewBox="0 0 397.4975999999999 186.51722404288694" height="185.58927765461388" width="395.5199999999999"><g></g><g></g><g transform="matrix(1,0,0,1,0.9887999999999693,127.35334022545958)"><svg viewBox="0 0 395.52 59.1638838174274" height="59.1638838174274" width="395.52"><g id="SvgjsG2253"><svg viewBox="0 0 395.52 59.1638838174274" height="59.1638838174274" width="395.52" id="SvgjsSvg2252"><g><svg viewBox="0 0 395.52 59.1638838174274" height="59.1638838174274" width="395.52"><g transform="matrix(1,0,0,1,0,0)"><svg width="395.52" viewBox="3.450000047683716 -35.29999923706055 240.97999572753906 36.04999923706055" height="59.1638838174274" data-palette-color="url(#b13cfc7c-2d42-4be4-be35-8bf7a01b90b5)"></svg></g></svg></g></svg></g></svg></g><g transform="matrix(1,0,0,1,166.0734148324299,0)"><svg viewBox="0 0 65.35077033514013 81.76448743568467" height="81.76448743568467" width="65.35077033514013"><g><svg xmlns="http://www.w3.org/2000/svg" xmlns:xlink="http://www.w3.org/1999/xlink" version="1.1" x="0" y="0" viewBox="100.00000762939453 63.13500213623047 300 375.3489990234375" style="enable-background:new 0 0 500 500;" xml:space="preserve" height="81.76448743568467" width="65.35077033514013" class="icon-icon-0" data-fill-palette-color="accent" id="SvgjsSvg2251"><g fill="white"><path d="M193.556 211.508c-48.979 32.556-75.17 102.862-86.517 142.346 18.434 12.559 81.13 51.902 142.961 51.902 59.791 0 120.374-36.781 140.976-50.565-14.133-38.679-44.599-108.811-89.42-142.316-16.532 4.505-33.988 7.427-51.556 7.427C230.695 220.302 211.512 216.794 193.556 211.508z" fill="white"></path><path d="M300.124 196.22l20.21-90.946c-3.985-8.669-11.615-21.634-19.424-21.634-12.495 0-51.106 26.737-51.495 27.008l-0.824 0.551-0.792-0.617c-0.344-0.266-34.498-26.715-47.826-26.985-10.304-0.144-19.097 14.415-22.967 21.981l19.951 89.78c17.003 5.143 35.077 8.579 53.044 8.579C266.958 203.938 283.987 200.872 300.124 196.22z" fill="white"></path><path d="M199.752 82c0.093 0 0.184 0 0.277 0 13.201 0 43.249 22.248 48.651 26.384 5.885-4.04 39.8-27.232 52.23-27.232 8.733 0 16.166 11.613 20.359 19.886l2.367-10.638c0 0-10.226-27.265-22.726-27.265-13.069 0-52.274 27.276-52.274 27.276s-34.698-26.987-48.635-27.271c-15.04-0.306-26.365 27.274-26.365 27.274l2.583 11.509C180.852 93.793 189.314 82 199.752 82z" fill="white"></path><path d="M250.001 411.211c-61.71 0-123.919-38.001-144.511-51.827-3.806 13.934-5.49 22.85-5.49 22.85s75.001 56.25 150.002 56.25c74.999 0 149.998-56.25 149.998-56.25s-2.413-8.455-7.123-21.762C370.786 375.099 310.158 411.211 250.001 411.211z" fill="white"></path></g></svg></g></svg></g><g></g></svg></g><defs><mask></mask></defs><mask><g id="SvgjsG2250"><svg viewBox="0 0 395.5199999999999 185.58927765461388" height="185.58927765461388" width="395.5199999999999"><g><svg viewBox="0 0 397.4975999999999 186.51722404288694" height="185.58927765461388" width="395.5199999999999"><g></g><g></g><g transform="matrix(1,0,0,1,0.9887999999999693,127.35334022545958)"><svg viewBox="0 0 395.52 59.1638838174274" height="59.1638838174274" width="395.52"><g id="SvgjsG2247"><svg viewBox="0 0 395.52 59.1638838174274" height="59.1638838174274" width="395.52" id="SvgjsSvg2246"><g><svg viewBox="0 0 395.52 59.1638838174274" height="59.1638838174274" width="395.52"><g transform="matrix(1,0,0,1,0,0)"><svg width="395.52" viewBox="3.450000047683716 -35.29999923706055 240.97999572753906 36.04999923706055" height="59.1638838174274" data-palette-color="url(#b13cfc7c-2d42-4be4-be35-8bf7a01b90b5)"></svg></g></svg></g></svg></g></svg></g><g transform="matrix(1,0,0,1,166.0734148324299,0)"><svg viewBox="0 0 65.35077033514013 81.76448743568467" height="81.76448743568467" width="65.35077033514013"><g><svg xmlns="http://www.w3.org/2000/svg" xmlns:xlink="http://www.w3.org/1999/xlink" version="1.1" x="0" y="0" viewBox="100.00000762939453 63.13500213623047 300 375.3489990234375" style="enable-background:new 0 0 500 500;" xml:space="preserve" height="81.76448743568467" width="65.35077033514013" class="icon-icon-0" data-fill-palette-color="accent" id="SvgjsSvg2244"></svg></g></svg></g><g></g></svg></g><defs><mask></mask></defs></svg></g></mask></svg></g></mask><linearGradient x1="0" x2="1" y1="0.5" y2="0.5" id="d5bdb6de-0c98-4c87-a17f-59f8110c2792"><stop stop-color="#f00b51" offset="0"></stop><stop stop-color="#730062" offset="1"></stop></linearGradient><rect width="395.5199890136719" height="185.5892791748047" fill="url(#d5bdb6de-0c98-4c87-a17f-59f8110c2792)" mask="url(#cc6e8024-2b4b-4efc-9ac9-7f9bfcd1f075)" data-fill-palette-color="accent"></rect></svg><rect width="395.5199999999999" height="185.58927765461388" fill="none" stroke="none" visibility="hidden"></rect></g></svg></g></svg>